<svg xmlns="http://www.w3.org/2000/svg" viewBox="0 0 1189.19 1189.19"><defs><style>.cls-1{fill:none;stroke:#1d1d1b;stroke-miterlimit:10;stroke-width:28px;}.cls-2{fill:#1d1d1b;}.cls-3{fill:#fff;}</style></defs><g id="Шар_2" data-name="Шар 2"><g id="Шар_1-2" data-name="Шар 1"><rect class="cls-1" x="14" y="14" width="1161.19" height="1161.19" rx="83.49"/><path class="cls-2" d="M719.28,1171.37c-23.21,4.68-41.8-5.09-58.2-3.72a346.25,346.25,0,0,1-36.05.87c-21.69-.41-55.22,21-96.93,13.85-13.65-4.68-48.45-9.17-62.1-13.85l-62.3-4c-7.36-8.47-60,4.65-67.4-3.83l116.81-166.3-11.82-41.9,18-44.15-211.45,6.54L135.6,825.24l-9.14-80.18L95.3,706.38l26.86-64.47,31.8-5.53,183.37-84.19,59.91-120.88L625,342.12l26.86-44.05,3.22-206.3,15-11.82,15,20.41,55.87,99.93L744.3,92.84,754,80l14,15L927,315.26l6.45,156.88,31.16,96.7,86.5,86.5-61.79,123,47.28,132.16,97.87,247.81c-10.89,18-36.77,7.59-55.55,25.5-20.62,20.48-77.67-43.14-125.22-11.71-55.07,33.25-80.72-26.46-152.43,3.06C783.09,1182.67,729.67,1169.07,719.28,1171.37ZM457.41,497.93l-80.59,105.3L353.11,578.8,171.59,657l27.94,36.53L368.22,672l55.34-43.51,55.34-41.91,74.22-18.8L625.57,556,754,482.88l7.52-8.59,57-106.38-50.5-194.48v160.1L748.6,398Zm-29,311.6,40-56.56c7.57-1.41,19.85-9.37,30.4-14.36l31.69-91.33h-15l-81.12-3.76-58.56,52.11L171.59,713.9l-8.19,66.36,77,63.65Zm9.67-329.87,251.43-101,29-86L678.75,175.58l-5.37,137.53-29,50.5-228,89.66L363.93,561.32l11.82,10.75Zm9.57,339.24,40.22,19.58,229.58-46.14L716,928.65l2.11-2.88.77,158.53h0l.35,70-.34-70c19.48,20.43,30.71,33.19,43.23,43.15,26.9,21.41,55.14,17.62,96,16.6,23.55-.59,82.38,4.76,101.1,3.4,46.67-.54,51.85,0,63-6.13,2.74-1.54,7.72-4.58,9.53-5.7a64.44,64.44,0,0,0,24.83-27.48c7.94-16.88,8.23-37,.14-56-28.29-66.36-66.58-151.4-70.61-156.68L889.36,713.9,856.05,788l-29,32.24-36.53,6.44-72.41,99-.65-133.43,90.25-12.9,31.16-48.35,21.49-64.47,45.13-50L924.81,585l-14-75.21-6.45-27.94-17.19-9.09-64.47,20.91-103.69,36-88.11,40.83L598.7,602.69l-43.51,39.76L516,752c-13,4.8-22.41,12.37-34.92,18.27ZM569.23,580.47c-13.69,1-24.77,3.85-33.72,7.68-8.24,2.92-23.38,8.8-37.67,17.56-9.76,6-19.12,13.29-25.63,21.91l42.9,1.53,17.7,1.7c25.43-14.66,49.39-35.89,58.89-51.06C579.45,580.3,579.08,579.53,569.23,580.47Z"/><path class="cls-3" d="M1056.67,1052.17c8.09,19,7.8,39.09-.14,56a64.44,64.44,0,0,1-24.83,27.48c-1.81,1.12-6.79,4.16-9.53,5.7-11.13,6.11-16.31,5.59-63,6.13-18.72,1.36-77.55-4-101.1-3.4-40.86,1-69.1,4.81-96-16.6-12.52-10-23.75-22.72-43.23-43.15l-.77-158.53,72.41-99L827,820.28l29-32.24,33.31-74.14,96.7,181.59C990.09,900.77,1028.38,985.81,1056.67,1052.17Z"/><path class="cls-3" d="M910.85,509.75l14,75.21-19.34,31.7-45.13,50-21.49,64.47-31.16,48.35-90.25,12.9L487.86,838.48,447.64,818.9l33.41-48.59C493.56,764.41,503,756.84,516,752l39.22-109.59,43.51-39.76,32.24-32.24,88.11-40.83,103.69-36,64.47-20.91,17.19,9.09Z"/><polygon class="cls-3" points="767.94 173.43 818.44 367.91 761.49 474.29 753.97 482.88 625.57 555.95 553.12 567.77 478.9 586.57 423.56 628.48 368.22 671.99 199.53 693.48 171.59 656.95 353.11 578.8 376.82 603.23 457.41 497.93 748.6 398 767.94 333.53 767.94 206.74 767.94 173.43"/><polygon class="cls-2" points="718.86 1084.3 719.2 1154.26 718.85 1084.29 718.86 1084.3"/><polygon class="cls-3" points="678.75 175.58 718.51 292.7 689.5 378.66 438.07 479.66 375.75 572.07 363.93 561.32 416.41 453.27 644.37 363.61 673.38 313.11 678.75 175.58"/><polygon class="cls-2" points="717.44 792.34 718.09 925.77 715.98 928.65 717.44 792.34"/><path class="cls-3" d="M569.23,580.47c9.85-.94,10.22-.17,22.47-.68-9.5,15.17-33.46,36.4-58.89,51.06l-17.7-1.7-42.9-1.53c6.51-8.62,15.87-15.94,25.63-21.91,14.29-8.76,29.43-14.64,37.67-17.56C544.46,584.32,555.54,581.44,569.23,580.47Z"/><path class="cls-3" d="M530.47,647.28l-31.69,91.33c-10.55,5-22.83,12.95-30.4,14.36l-40,56.56-188,34.38-77-63.65,8.19-66.36,204.16-18.27,58.56-52.11,81.12,3.76Z"/><polygon class="cls-3" points="682.43 1084.81 540.98 1113.91 404.3 1144.04 491.19 999.02 461.32 953.06 495.53 875.45 687.05 835.11 752.89 822.34 685.38 925.46 682.43 1084.81"/></g></g></svg>