<svg xmlns="http://www.w3.org/2000/svg" viewBox="0 0 1189.19 1189.19"><defs><style>.cls-1,.cls-2{fill:#1d1d1b;}.cls-1{stroke:#1d1d1b;stroke-miterlimit:10;stroke-width:28px;}.cls-3{fill:#fff;}</style></defs><g id="Шар_2" data-name="Шар 2"><g id="Шар_1-2" data-name="Шар 1"><rect class="cls-1" x="14" y="14" width="1161.19" height="1161.19" rx="580.6"/><path class="cls-2" d="M715,1158.74c-23.21,4.69-38.88,7.54-55.28,8.91a346.25,346.25,0,0,1-36.05.87c-21.69-.41-55.22,21-96.93,13.85-13.65-4.68-48.45-9.17-62.1-13.85l-59.09-18.37c-7.37-8.48-43.14-10.87-50.51-19.34l96.71-136.47-11.82-41.9,18-44.15-211.45,6.54L134.24,825.24l-9.14-80.18L93.94,706.38l26.86-64.47,31.8-5.53L336,552.19l59.91-120.88,227.79-89.19,26.86-44.05,3.22-206.3L668.8,80l15,20.41,55.87,99.93,3.23-107.45L752.61,80l14,15,159,220.27,6.45,156.88,31.16,96.7,86.5,86.5-61.79,123,47.28,132.16,14.51,42.18c-10.89,18-25.28,36.08-44.06,54-20.62,20.49-37.87,35.46-85.42,66.89-55.07,33.25-57,34.26-128.68,63.79C773.4,1144.85,725.39,1156.45,715,1158.74ZM427,809.53,467,753c7.57-1.41,19.85-9.37,30.4-14.36l31.69-91.33h-15L433,643.52l-58.56,52.11L170.23,713.9,162,780.26l77,63.65Zm9.67-329.87,251.43-101,29-86L677.39,175.58,672,313.11l-29,50.5-228,89.66L362.57,561.32l11.82,10.75Zm9.57,339.24,40.22,19.58,229.58-46.14-1.46,136.31,1.06-1.45-.45,153.64c16.49-.73,30.13-5.74,51.88-12.36,27.86-9.89,35.08-13.67,73.84-33.84,21-10.61,45.43-27,58.87-37.07a619.19,619.19,0,0,0,49.42-40.83c17.35-16.16,34.73-34.83,33.31-34.92,3.18-5.78,8.73-17.72,2.15-26.33L888,713.9,854.69,788l-29,32.24-36.53,6.44L715.68,927.2l.4-134.86,90.25-12.9,31.16-48.35L859,666.62l45.13-50L923.45,585l-14-75.21L903,481.81l-17.19-9.09-64.47,20.91-103.69,36-88.11,40.83-32.24,32.24-43.51,39.76L514.61,752c-13,4.8-22.41,12.37-34.92,18.27ZM567.87,580.47c-13.69,1-24.77,3.85-33.72,7.68-8.24,2.92-23.38,8.8-37.67,17.56-9.76,6-19.12,13.29-25.63,21.91l42.9,1.53,17.7,1.7c25.43-14.66,49.39-35.89,58.89-51.06C578.09,580.3,577.72,579.53,567.87,580.47Zm-16.11-12.7L624.21,556l128.4-73.07,7.52-8.59,57-106.38-50.5-194.48v160.1L747.24,398,456.05,497.93l-80.59,105.3L351.75,578.8,170.23,657l27.94,36.53L366.86,672l55.34-43.51,55.34-41.91Z"/><path class="cls-3" d="M984.7,895.49c6.58,8.61,1,20.55-2.15,26.33,1.42.09-16,18.76-33.31,34.92a619.19,619.19,0,0,1-49.42,40.83C886.38,1007.63,862,1024,841,1034.64c-38.76,20.17-46,23.95-73.84,33.84-21.75,6.62-35.39,11.63-51.88,12.36l.45-153.64,73.46-100.48,36.53-6.44,29-32.24L888,713.9Z"/><path class="cls-3" d="M909.49,509.75l14,75.21-19.34,31.7-45.13,50-21.49,64.47-31.16,48.35-90.25,12.9L486.5,838.48,446.28,818.9l33.41-48.59c12.51-5.9,21.9-13.47,34.92-18.27l39.22-109.59,43.51-39.76,32.24-32.24,88.11-40.83,103.69-36,64.47-20.91L903,481.81Z"/><polygon class="cls-3" points="766.58 173.43 817.08 367.91 760.13 474.29 752.61 482.88 624.21 555.95 551.76 567.77 477.54 586.57 422.2 628.48 366.86 671.99 198.17 693.48 170.23 656.95 351.75 578.8 375.46 603.23 456.05 497.93 747.24 398 766.58 333.53 766.58 206.74 766.58 173.43"/><polygon class="cls-3" points="677.39 175.58 717.15 292.7 688.14 378.66 436.71 479.66 374.39 572.07 362.57 561.32 415.05 453.27 643.01 363.61 672.02 313.11 677.39 175.58"/><polygon class="cls-2" points="716.08 792.34 715.68 927.2 714.62 928.65 716.08 792.34"/><path class="cls-3" d="M567.87,580.47c9.85-.94,10.22-.17,22.47-.68-9.5,15.17-33.46,36.4-58.89,51.06l-17.7-1.7-42.9-1.53c6.51-8.62,15.87-15.94,25.63-21.91,14.29-8.76,29.43-14.64,37.67-17.56C543.1,584.32,554.18,581.44,567.87,580.47Z"/><path class="cls-3" d="M529.11,647.28l-31.69,91.33c-10.55,5-22.83,12.95-30.4,14.36l-40,56.56L239,843.91l-77-63.65,8.19-66.36,204.16-18.27L433,643.52l81.12,3.76Z"/><polygon class="cls-3" points="682.43 1084.81 540.98 1113.91 433.75 1113.91 491.19 999.02 461.32 953.06 495.53 875.45 687.05 835.11 752.89 822.34 685.38 925.46 682.43 1084.81"/></g></g></svg>