<svg xmlns="http://www.w3.org/2000/svg" viewBox="0 0 870.42 1172.35"><defs><style>.cls-1{fill:#eab354;}</style></defs><g id="Шар_2" data-name="Шар 2"><g id="Шар_1-2" data-name="Шар 1"><path class="cls-1" d="M433.5.45c-5.4,1.3-7.7,3.2-9.7,7.9-1.9,4.3-2,5.9-1.5,20.2.3,8.5.3,14.7-.1,13.7-1.4-3.4-6.1,15.1-8.3,32.3a320.38,320.38,0,0,1-8.5,45.4c-5.3,19.9-6.6,27.8-6.8,41.3-.1,12.4,0,13.3,2.2,15.6a17.94,17.94,0,0,0,6.2,3.7c2.2.7,3.8,1.5,3.6,1.8s-2-.1-3.7-.7l-3.3-1.1,2.5,2.6c6.4,6.9,17.6,11.7,30,12.9,13,1.2,35.6-3.8,50.4-11.3,10.4-5.2,21.5-12.5,26-17.3l4-4.1-4.2,2.1c-6.5,3.3-5.1,1.9,3-2.9,19.9-11.8,31.6-26.2,31.7-38.8,0-13.7-13.4-39.9-34.1-66.5-8.3-10.6-33.4-35.8-42.4-42.6a120.89,120.89,0,0,0-16-9.6C445.2.65,438.8-.85,433.5.45Zm-9.8,47.3c-.3.8-.6.5-.6-.6s.2-1.7.5-1.3A2,2,0,0,1,423.7,47.75Zm-21,97c-.3.7-.5.2-.5-1.2s.2-1.9.5-1.3A5.28,5.28,0,0,1,402.7,144.75Zm-2.3,9.2c-.3,2.1-.8,3.5-1.1,3.2s-.1-2,.3-4,.8-3.5,1.1-3.2S400.8,152,400.4,154Z"/><path class="cls-1" d="M153.5,79.35c-9.1,5.7-16.7,22-20.6,44.2-.9,5.4-1.5,6.8-1.9,5s-1.2-.4-3.2,6.5c-4,13.5-5.1,23.1-5.1,43.5.1,35.6,6.1,55.8,20.8,70.6,9.8,9.9,21.6,14.6,36.5,14.7,10.3,0,17.5-1.9,26.7-7.3,7.1-4.1,20.4-15.5,16.8-14.4l-2,.6,2-1.4c1.1-.8,4.6-2.9,7.8-4.7,12.5-7.1,22.7-19.6,22.7-27.9,0-8.7-10-37.3-20.5-58.7-10.8-22.2-21.4-37.5-36-52-14.9-14.9-22.8-19.6-33.9-20.2C157.8,77.55,155.9,77.75,153.5,79.35Zm-22.8,60.4c-.3.8-.6.5-.6-.6s.2-1.7.5-1.3A2,2,0,0,1,130.7,139.75Z"/><path class="cls-1" d="M502.5,216.65c-21.3,2.1-46.3,8.8-63.1,17-16.4,8-29.5,19.7-33.9,30.2-2,4.7-4.5,16.8-4.5,21.5,0,2.6-.3,3.3-.9,2.3s-1.5.5-3,5.5c-3.2,10.9-4.1,18.6-4.1,37.5,0,37.9,7.8,93.7,18.4,130.9,7.2,25.1,20.7,54.9,31.2,69,18.9,25.1,36.8,34.5,67.9,35.7,27.6,1,48.8-5.3,70.2-21,2.9-2.1,5.1-4.2,5-4.6s2.1-2.6,4.9-4.8c14.6-11.6,28.1-40.2,34.8-73.6,4.5-22.8,5.1-29.6,5-61.7,0-26.5-.3-32.4-2.2-44.9-6.3-40-17.1-70.2-34.3-96.1-11.9-17.9-33.5-36.8-46.3-40.5C536.2,215.75,520.8,215,502.5,216.65Zm-102.8,83.1c-.2,1.8-.4.4-.4-3.2s.2-5,.4-3.3A35.28,35.28,0,0,1,399.7,299.75ZM585,541.05c0,.6-9.6,5.5-10.7,5.5-.9,0,8.7-5.7,10-5.9C584.7,540.55,585,540.75,585,541.05Z"/><path class="cls-1" d="M726,222.15a13.82,13.82,0,0,0-1,3c0,.3-3.7,10.3-8.1,22.2s-9.7,26.2-11.5,31.7-3.2,8.4-2.9,6.5c.8-5.8-4.3,8.1-7,18.9-11.8,47.5,1.9,82.8,35.6,91.6,10.3,2.8,26.8.7,32.9-4a17.09,17.09,0,0,1,3.5-2.1c1.6-.7,1.3-.9-2-1.2s-2.4-.7,6.3-2.2c13.5-2.4,17.8-4.8,21.5-12.2,2.6-5,3-7,3.5-17.1,1-22.9-4.4-51.1-13.7-71.1-11.9-25.6-40.4-60.6-53.4-65.5C727.2,219.65,726.8,219.85,726,222.15Zm-24.3,70.6c-.3.7-.5.2-.5-1.2s.2-1.9.5-1.3A5.28,5.28,0,0,1,701.7,292.75Zm-2,9c-.3.7-.5.2-.5-1.2s.2-1.9.5-1.3A5.28,5.28,0,0,1,699.7,301.75Zm-1,5c-.3.8-.6.5-.6-.6s.2-1.7.5-1.3A2,2,0,0,1,698.7,306.75Z"/><path class="cls-1" d="M199.3,279.55c-9,1.6-23.8,6.9-28,9.9-8.5,6.1-11.2,13.1-11.4,29-.1,5.8-.4,9.2-.7,7.6-.4-2.9-.5-2.9-1.8,1.5-2.7,8.6-4.4,17.6-5.9,31.5-.9,7.7-2.6,22.5-3.9,33-4.3,34-4.9,42.1-4.2,57.9,1.2,30.3,6.7,52.7,19.1,78.1,7.3,15.1,12.4,23,21.1,33.5,29.6,35.6,72.3,59.3,121.9,67.7,8,1.3,28.7.7,35.3-1.1,7.6-2,17.9-6.8,21.2-9.9a60.09,60.09,0,0,1,5-4.1l2.5-1.8-2.7.6c-1.4.3-3.4.8-4.5,1.1s-.7,0,.7-.6c12.2-5.6,15.6-7.8,19.7-12.3,16.6-18.3,20.5-53.4,11.8-104.2a439.67,439.67,0,0,0-23.2-81.8c-6.3-15.7-24.5-50.9-34.4-66.5-17.3-27.2-31.2-40.6-54.5-52.8-23.7-12.3-38.5-16.3-61.9-16.8C211.7,278.85,202.2,279.05,199.3,279.55Z"/><path class="cls-1" d="M53.9,347.35c-8.8,5.6-23.2,21.5-32.5,35.7S7,409.55,5.5,421c-.4,2.9-1,4.4-1.4,3.7C2.5,422.05,0,440,0,454.15q0,31.65,10.5,52.9,7.35,14.7,20.1,20.7c8.2,3.9,7.9,3.8,17.5,4.5,9.4.7,16.4-1.2,25.2-6.7l6.2-4-4,.5c-2.2.2-3.1.2-2-.1,6-1.5,17.3-5.9,20.5-7.9,5.3-3.3,9.8-8.9,10.6-13.2,3.4-17.7-19.9-110.5-36.7-146.3C62.8,343.55,61.2,342.75,53.9,347.35Z"/><path class="cls-1" d="M766.5,433.65c-19.7,2.5-44.6,9.4-57.5,15.9-17.2,8.6-32.3,26.3-51.2,59.7-4.2,7.3-7.9,12.9-8.3,12.5s-.5-.2-.2.4c.7,1.1-8.3,21.8-9,21-.2-.2,1.6-4.7,4.1-10s4.3-9.6,4-9.6c-1.1,0-15.7,31.6-21.7,47-6.9,17.9-16.4,49.4-20.4,67.9-2.3,10.9-2.7,15-2.7,30.1-.1,11.9.3,18.8,1.2,21.5,6.7,20.5,20.6,33,43.3,38.9,15,3.9,27.8,4.9,51.4,4.3,50.6-1.3,89.7-13,116.9-34.9,4.7-3.8,8.5-7.2,8.4-7.6s4.3-5.2,9.8-10.7c13.8-13.8,21-25.1,27.4-43,9.2-26.2,10.9-58.2,4.9-93.4-7.2-42.1-27.8-91.1-43-102.1C813.3,434,790,430.75,766.5,433.65ZM638.6,548.25c-.8,1.5-1.5,2.5-1.6,2.1,0-1.2,2.3-5.8,2.7-5.4C640,545.15,639.5,546.65,638.6,548.25Zm-2.5,6c-1.2,2-1.4,1.4-.5-1.2.4-.9.9-1.4,1.1-1.1S636.7,553.25,636.1,554.25Zm-2,5c-1.2,2-1.4,1.4-.5-1.2.4-.9.9-1.4,1.1-1.1S634.7,558.25,634.1,559.25Zm-4,10.4c-1.1,2.4-2,4.1-2,3.7-.1-1.2,3.1-8.9,3.5-8.5C631.9,565.05,631.2,567.25,630.1,569.65Zm-3.1,8.6c-1.1,1.7-1.1,1.7-.6,0a30.13,30.13,0,0,0,.7-3c0-.9.2-.9.5,0A3.9,3.9,0,0,1,627,578.25Zm-5.3,16.5c-.3.8-.6.5-.6-.6s.2-1.7.5-1.3A2,2,0,0,1,621.7,594.75Zm200.8,97.4c-3.6,2.8-6.1,3.6-3,1,1.7-1.4,3.5-2.5,4-2.5S823.6,691.35,822.5,692.15Zm-6.5,3.9a6.12,6.12,0,0,1-2.2,1.5c-2.2,1.1-2.2,1-.4-.4C815.5,695.45,816,695.25,816,696.05Z"/><path class="cls-1" d="M80,561.25c-11.7,2-26,10.2-35.6,20.6-11.9,12.9-19.9,28-27,51.1-1.6,5.4-2.3,6.7-2,4.1.8-6.7-6.1,15.1-7.9,25a215.74,215.74,0,0,0-2.2,24c-1.5,39.3,8.8,73.7,31,103.5C50.7,809,74,827,97.2,836.65c7.1,3,17.2,6.6,21.3,7.5,12.1,2.9,19,3.6,30,3.1,16.6-.6,24.2-3.6,37.8-14.5,7.1-5.7,10.5-9.5,4.6-5.1-4.4,3.3-7.3,4.8-3.4,1.7,24.7-19.2,44.2-50.3,54.8-87.3,4.7-16.5,6.1-26,6.1-42.5.1-15.3.1-15.6-3.2-23-6.9-16.1-21.4-35.3-40.8-54C162.2,581.85,110.1,556.25,80,561.25Zm-65.3,83.5c-.3.8-.6.5-.6-.6s.2-1.7.5-1.3A2,2,0,0,1,14.7,644.75Zm-1,4c-.3.8-.6.5-.6-.6s.2-1.7.5-1.3A2,2,0,0,1,13.7,648.75Zm168.9,184.3a8.14,8.14,0,0,1-3,1.5c-.6-.1,0-.7,1.4-1.5C184.2,831.15,185,831.25,182.6,833.05Z"/><path class="cls-1" d="M466.5,629.65c-44.4,2.1-99.2,15-125.1,29.4-13.2,7.4-22.1,19.6-30.4,41.7-1.8,4.8-3.7,8.5-4.1,8.3s-.5.3-.3,1.2-.7,5.2-2.1,9.3c-2.3,6.7-2.6,6.4-1-1,.3-1.4-.5-.3-1.8,2.5-2.7,5.7-8.8,23.3-14.2,41-7,22.7-8.3,27-11.5,35.5a197.94,197.94,0,0,1-8.6,19l-5.5,10.5,4.8-4.5,4.8-4.5-5,5.3c-18.4,19.6-45.4,36.4-82.5,51.2-25.2,10.1-33.3,15.4-38.8,25.7-4.2,7.9-7.3,19.8-8.2,31.3-.7,9.1-.7,9.2-.9,3l-.3-6.5-1.9,8c-2.3,9.4-2.8,26-1,35.3,3.4,17.9,10.2,31.2,22.1,43.3,9.2,9.3,12.1,11.5,33.2,25,21.3,13.6,24.1,16,54.3,46.4,27.2,27.3,30.5,30.5,41,39.1,23.9,19.5,46.1,29.9,77.5,36.3,36.9,7.5,96.9,11.9,147.5,10.7,76.8-1.7,118-10.1,147.1-30.1,7.1-4.8,20.6-16.6,19.9-17.3-.3-.3,3.5-4.6,8.3-9.6,19.8-20.6,35.2-45.7,58.8-95.9,5.3-11.4,9.9-20.5,10.1-20.3s-.3,1.8-1.2,3.5c-2.2,4.3-1.3,3.9,1.9-1,1.5-2.2,11.5-12.9,22.2-23.7s19.2-19.7,18.9-20,2.9-4,7-8.3c33.2-34.7,51.2-82.4,49.2-129.9-1.4-32.4-11.2-57.9-25.1-65.3-3.6-1.9-5.5-2.2-16.6-2-17,.2-32.5,2.6-94.2,14.9-60.6,12-76.3,14.5-90.5,14.6-11.7,0-13.7-.8-21.4-8.9-10.5-11.1-19.5-24.6-42.4-63.8-31.9-54.6-42.8-70.7-51.9-76-4.1-2.4-5.5-2.6-23.1-3.8C483.3,629.05,474.8,629.25,466.5,629.65ZM793,959.05a43.52,43.52,0,0,1-5.4,4.7c-3.5,2.6-3.4,2.4.9-1.5C793.7,957.45,795.2,956.45,793,959.05ZM675,1125a23.39,23.39,0,0,1-3.7,3.1l-3.8,2.7,3.3-3.1C673.8,1124.75,675,1124,675,1125Z"/><path d="M16.1,631.15c0,1.1.3,1.4.6.6a2,2,0,0,0-.1-1.9C16.3,629.45,16,630.05,16.1,631.15Z"/></g></g></svg>