<svg width="32" height="29" viewBox="0 0 32 29" fill="none" xmlns="http://www.w3.org/2000/svg">
<path d="M26.372 17.2682C23.2638 17.2682 20.7441 19.7879 20.7441 22.896C20.7441 26.0041 23.2638 28.5238 26.372 28.5238C29.4806 28.5238 31.9998 26.0041 31.9998 22.896C31.9998 19.7878 29.4806 17.2682 26.372 17.2682ZM29.5882 23.8341H27.31V26.1117H25.4344V23.8341H23.1561V21.9579H25.4344V19.6798H27.31V21.9579H29.5882V23.8341Z" fill="#E6E6E6"/>
<path d="M16.0734 22.1941L16.1521 18.1772H13.9043L13.9825 22.1941H16.0734Z" fill="#E6E6E6"/>
<path d="M24.2786 16.4968L24.584 13.017H22.0658L21.8691 16.4968H24.2786Z" fill="#E6E6E6"/>
<path d="M17.8711 16.4968H20.1822L20.3789 13.017H17.9401L17.8711 16.4968Z" fill="#E6E6E6"/>
<path d="M20.0873 18.1772H17.8385L17.7598 22.1941H19.8603L20.0873 18.1772Z" fill="#E6E6E6"/>
<path d="M16.2554 13.017H13.8047L13.8727 16.4968H16.1869L16.2554 13.017Z" fill="#E6E6E6"/>
<path d="M12.2989 22.1941L12.2201 18.1772H9.9707L10.1988 22.1941H12.2989Z" fill="#E6E6E6"/>
<path d="M9.67773 13.017L9.87492 16.4968H12.1855L12.1176 13.017H9.67773Z" fill="#E6E6E6"/>
<path d="M6.7195 22.1941H8.51262L8.28612 18.1772H5.92969L6.24425 21.7586C6.26537 22.0052 6.47231 22.1941 6.7195 22.1941Z" fill="#E6E6E6"/>
<path d="M5.47656 13.017L5.78231 16.4968H8.19131L7.99469 13.017H5.47656Z" fill="#E6E6E6"/>
<path d="M6.13081 23.9303C5.70144 23.9303 5.31069 23.7696 5.01106 23.5014C4.71194 23.2326 4.51013 22.8619 4.46331 22.4346L4.46225 22.4269L4.46125 22.415L3.0155 11.752H27.043L26.438 16.2168C26.9559 16.2219 27.4579 16.2904 27.9419 16.4073L28.5963 11.5801H28.7363C29.5904 11.5801 30.2834 10.8871 30.2834 10.0329V9.30694C30.2834 8.45231 29.5904 7.75988 28.7363 7.75988H25.6066H23.108H20.3773L25.0093 4.3495L25.0088 4.3485C25.311 4.13538 25.5473 3.85731 25.7059 3.54738C25.8676 3.23125 25.951 2.88219 25.9514 2.529C25.9514 2.09244 25.8212 1.64656 25.5545 1.26144L25.5551 1.26194L25.346 0.959689L25.345 0.959189C25.1308 0.648752 24.8466 0.406814 24.53 0.245126C24.2138 0.083439 23.8653 1.43399e-06 23.5121 1.43399e-06C23.075 -0.000498566 22.6291 0.129751 22.2451 0.396939L22.2363 0.402126L13.0354 7.1765L13.0365 7.177C12.8074 7.33863 12.6164 7.53738 12.4681 7.75981H7.17544H4.67644H1.54713C0.6925 7.75988 0 8.45231 0 9.30694V10.0329C0 10.8582 0.647187 11.5311 1.46219 11.5754L2.95881 22.6184H2.95931C3.05144 23.4184 3.43656 24.1264 3.99881 24.6299C4.56512 25.1386 5.31738 25.4459 6.13081 25.4459H20.1981C19.9994 24.9667 19.8609 24.4574 19.7785 23.9303H6.13081ZM13.6878 8.66913C13.7403 8.56869 13.8145 8.48063 13.9164 8.40963L13.9268 8.40294L23.1101 1.64138C23.2358 1.55538 23.3727 1.51575 23.5123 1.51575C23.626 1.51575 23.7393 1.5425 23.8397 1.5945C23.9406 1.646 24.0292 1.72069 24.1002 1.82256L24.0992 1.82206L24.3087 2.12425V2.12475C24.3957 2.25088 24.4354 2.38781 24.4358 2.52888C24.4358 2.64213 24.4091 2.75544 24.3571 2.85631C24.3046 2.95725 24.2304 3.04581 24.1284 3.11631L24.1202 3.122L14.9353 9.8845C14.8096 9.9705 14.6727 10.0101 14.5326 10.0106C14.4193 10.0106 14.3061 9.98331 14.2052 9.93138C14.1043 9.87988 14.0168 9.80475 13.9457 9.70331L13.7361 9.40106V9.40156C13.6491 9.27544 13.61 9.13794 13.6095 8.99688C13.6096 8.88375 13.6364 8.77 13.6878 8.66913Z" fill="#E6E6E6"/>
</svg>
